<?xml version="1.0" standalone="no"?>
<!DOCTYPE svg PUBLIC "-//W3C//DTD SVG 20010904//EN"
 "http://www.w3.org/TR/2001/REC-SVG-20010904/DTD/svg10.dtd">
<svg version="1.0" xmlns="http://www.w3.org/2000/svg"
 width="128.000000pt" height="128.000000pt" viewBox="0 0 128.000000 128.000000"
 preserveAspectRatio="xMidYMid meet">
<metadata>
Created by potrace 1.14, written by Peter Selinger 2001-2017
</metadata>
<g transform="translate(0.000000,128.000000) scale(0.100000,-0.100000)"
fill="#000000" stroke="none">
<path d="M430 1266 c0 -23 -17 -28 -57 -17 -34 10 -40 8 -55 -11 -9 -12 -14
-26 -12 -30 3 -4 0 -8 -5 -8 -6 0 -10 -3 -10 -7 4 -23 -2 -43 -11 -38 -6 3 -7
-1 -4 -10 3 -8 -1 -34 -11 -58 -9 -23 -16 -43 -16 -45 4 -8 -13 -52 -19 -52
-5 0 -6 -8 -3 -19 3 -12 -4 -25 -19 -36 -17 -13 -18 -16 -4 -11 14 5 17 3 11
-11 -4 -10 -10 -26 -12 -35 -3 -10 -10 -15 -17 -11 -6 4 -5 0 2 -9 7 -9 9 -18
5 -20 -6 -2 -37 -83 -48 -128 -16 -60 -39 -120 -46 -120 -6 0 -8 -4 -5 -9 8
-12 -14 -71 -26 -71 -5 0 -6 -4 -3 -10 3 -5 -2 -24 -12 -42 -39 -75 -25 -95
82 -123 121 -31 175 -58 392 -198 115 -76 219 -137 230 -137 11 0 25 10 31 23
6 12 25 45 41 72 60 101 203 352 245 430 11 22 24 42 27 45 3 3 26 43 52 90
26 47 61 109 77 139 21 37 28 57 21 65 -6 7 -42 30 -80 52 -51 28 -69 43 -65
55 8 29 -6 47 -56 68 -26 11 -50 27 -53 34 -3 8 -16 17 -29 20 -149 37 -186
50 -253 91 -56 34 -81 44 -93 37 -20 -10 -26 -8 -110 30 -72 33 -82 35 -82 15z
m-80 -116 c0 -5 -2 -10 -4 -10 -3 0 -8 5 -11 10 -3 6 -1 10 4 10 6 0 11 -4 11
-10z"/>
</g>
</svg>
